<?xml version="1.0" encoding="UTF-8" standalone="no"?>
<!-- Generator: Adobe Illustrator 22.1.0, SVG Export Plug-In . SVG Version: 6.00 Build 0)  -->

<svg
   xmlns:dc="http://purl.org/dc/elements/1.1/"
   xmlns:cc="http://creativecommons.org/ns#"
   xmlns:rdf="http://www.w3.org/1999/02/22-rdf-syntax-ns#"
   xmlns:svg="http://www.w3.org/2000/svg"
   xmlns="http://www.w3.org/2000/svg"
   xmlns:sodipodi="http://sodipodi.sourceforge.net/DTD/sodipodi-0.dtd"
   xmlns:inkscape="http://www.inkscape.org/namespaces/inkscape"
   version="1.1"
   id="Layer_1"
   x="0px"
   y="0px"
   viewBox="0 0 1140 240"
   xml:space="preserve"
   sodipodi:docname="plays_logo_colorasd.svg"
   inkscape:export-filename="F:\Documents\RePlaysTV\resources\images\plays_logo_color.png"
   inkscape:export-xdpi="300"
   inkscape:export-ydpi="300"
   width="1140"
   height="240"
   inkscape:version="0.92.4 (5da689c313, 2019-01-14)"><metadata
   id="metadata31"><rdf:RDF><cc:Work
       rdf:about=""><dc:format>image/svg+xml</dc:format><dc:type
         rdf:resource="http://purl.org/dc/dcmitype/StillImage" /><dc:title>horizontal-light</dc:title></cc:Work></rdf:RDF></metadata><defs
   id="defs29" /><sodipodi:namedview
   pagecolor="#000000"
   bordercolor="#666666"
   borderopacity="1"
   objecttolerance="10"
   gridtolerance="10"
   guidetolerance="10"
   inkscape:pageopacity="0"
   inkscape:pageshadow="2"
   inkscape:window-width="1680"
   inkscape:window-height="987"
   id="namedview27"
   showgrid="false"
   inkscape:zoom="1.3355125"
   inkscape:cx="332.76433"
   inkscape:cy="71.701434"
   inkscape:window-x="1272"
   inkscape:window-y="-8"
   inkscape:window-maximized="1"
   inkscape:current-layer="Layer_1" />
<style
   type="text/css"
   id="style2">
	.st0{fill:#F2F3F7;}
	.st1{fill:#14B3B2;}
</style>

<title
   id="title6">horizontal-light</title>

<path
   id="path823"
   style="fill:#f1f2f6;stroke-width:0.31999999"
   d="m 289.45312,5.0253906 c -11.05855,1.391e-4 -22.03571,0.098268 -24.90624,0.2949219 -7.42555,0.5087083 -12.62181,2.2771102 -15.95313,5.4277345 -1.91121,1.80754 -3.07192,3.744688 -3.93945,6.576172 -0.56457,1.842648 -0.58789,5.26003 -0.58789,84.814451 0,79.35872 0.0254,82.93176 0.57812,83.77539 1.15476,1.76243 2.2469,2.12791 6.35938,2.12891 6.68283,0.002 11.76795,-1.03783 16.53125,-3.38281 5.28562,-2.60212 9.18691,-7.0396 11.10156,-12.62696 1.47825,-4.31384 1.74605,-7.40865 1.74805,-20.19531 0.002,-10.39605 0.059,-11.74772 0.50781,-11.91992 0.27839,-0.10684 6.67693,-0.19336 14.21875,-0.19336 h 13.71289 l 1.0957,1.35937 c 0.60322,0.748 5.98672,8.20055 11.96289,16.56055 16.84666,23.56659 17.32341,24.21999 19.19922,26.24609 3.30707,3.57204 7.45248,6.16094 11.50781,7.1875 2.62541,0.66463 8.49811,0.43694 11.47657,-0.44531 4.4785,-1.3266 13.16238,-6.17656 15.02539,-8.39062 1.35203,-1.60677 1.62891,-4.0979 0.63867,-5.75977 -0.14346,-0.24075 -7.60777,-10.73436 -16.58594,-23.31836 -8.97821,-12.584 -16.3318,-23.11491 -16.3418,-23.40234 -0.01,-0.2988 1.10506,-1.32702 2.60157,-2.40039 24.24784,-17.39139 34.10652,-48.15921 24.54492,-76.597658 C 368.16679,33.565318 356.11186,19.854612 339.74219,11.857422 331.946,8.0486931 323.61154,5.8601184 314.84375,5.3203125 311.65084,5.123735 300.51171,5.0252515 289.45312,5.0253906 Z m 283.51954,0 c -11.05856,1.392e-4 -22.03572,0.098268 -24.90625,0.2949219 -7.42553,0.5087083 -12.62184,2.2771102 -15.95313,5.4277345 -1.91123,1.80754 -3.0719,3.744688 -3.93945,6.576172 -0.56456,1.842648 -0.58789,5.26003 -0.58789,84.814451 0,79.35872 0.0254,82.93176 0.57812,83.77539 0.31734,0.48432 1.03541,1.16073 1.59766,1.50391 h 0.002 c 0.85847,0.52301 1.62036,0.62404 4.75781,0.625 6.68285,0.002 11.76989,-1.03783 16.53321,-3.38281 5.2856,-2.60212 9.18499,-7.0396 11.09961,-12.62696 1.47898,-4.31593 1.74504,-7.40596 1.74804,-20.22265 l 0.004,-11.75391 0.7207,-0.16211 c 0.396,-0.0886 8.99914,-0.20903 19.11914,-0.26953 19.85805,-0.11873 19.75605,-0.1115 27.35938,-2.02539 16.52909,-4.16067 31.32894,-15.31091 40.47265,-30.49219 C 667.03332,81.442292 663.3281,47.841234 642.62695,26.005859 631.01991,13.762879 615.16568,6.354783 598.36328,5.3203125 595.17038,5.1237354 584.03122,5.0252514 572.97266,5.0253906 Z m 112.64843,1.6035156 c -0.47333,-0.0032 -0.9163,0.00293 -1.32031,0.021484 -2.78733,0.1279994 -4.13325,0.8170852 -5.11914,2.6191406 -0.52277,0.9555998 -0.55469,5.7828858 -0.55469,82.7753908 0,65.544438 0.08,82.105968 0.41016,83.509768 1.57047,6.67701 7.06278,12.08335 13.82812,13.61133 1.35216,0.3054 3.0509,0.41811 4.85157,0.32031 6.4874,-0.35217 12.06697,-3.93943 15.0957,-9.70313 2.23123,-4.246 2.12569,-1.57974 2.08789,-52.85937 -0.0188,-25.432 -0.13234,-58.407299 -0.25391,-73.279299 -0.21616,-26.452899 -0.23599,-27.095192 -0.91992,-29.599609 -1.1832,-4.332607 -2.70666,-7.025201 -5.63086,-9.957031 -2.14006,-2.145637 -3.11696,-2.851804 -5.6289,-4.06836 -1.672,-0.8097602 -4.26377,-1.7657701 -5.75977,-2.1230466 -2.99149,-0.7144281 -7.77262,-1.2452185 -11.08594,-1.2675782 z M 66.019531,24.136719 c -2.290249,0.355413 -4.558977,1.301847 -6.90039,0.757812 -1.258788,0.152197 -2.3921,0.665999 -3.6875,0.837891 -0.861179,0.114274 -2.9829,-0.433055 -3.714844,0.09375 -4.721022,0.479061 4.062806,-0.479075 -3.890625,0.789062 -1.093435,0.174343 -2.267869,-0.355342 -3.375,-0.236328 -1.429811,0.351365 -0.607056,0.131811 -2.457031,0.699219 -0.1127,0.02949 -0.237784,-0.01116 -0.34961,0.02148 -2.0575,0.600588 0.988159,0.32767 -3.320312,1.027344 -0.46478,0.07548 -0.940016,-0.05192 -1.410157,-0.07813 -0.201478,-0.02615 -0.404681,-0.03833 -0.603515,-0.08008 -0.151718,-0.03186 0.221597,-0.148889 0.06055,-0.128906 -1.518538,0.188371 -2.868333,1.288227 -4.501953,0.919922 -0.01789,-0.0024 -1.328005,-0.168016 -1.501953,-0.21875 -0.05499,-0.01604 -0.174616,-0.240821 -0.265626,-0.19336 -3.240192,1.689841 -0.357411,0.597195 -2.972656,1.496094 -0.505392,0.08998 -1.00898,0.193564 -1.513672,0.285156 -0.102885,1.252048 -0.114439,0.429365 -0.349609,1.492188 -0.02636,0.119134 0.08471,-0.229282 0.126953,-0.34375 0.08363,1.577471 0.08059,3.157216 0.07227,4.736328 -0.01402,1.588073 -0.0075,3.175575 -0.0059,4.763672 -2.5e-5,0.117196 2e-5,0.23437 0,0.351562 0.984931,1.386328 1.201153,2.392272 0.833985,0.875 0.05909,0.139803 0.361542,0.793682 0.59375,1.435547 0.225062,0.213349 0.442687,0.441113 0.677734,0.636719 -0.13716,-0.142872 -0.222871,-0.235506 -0.388672,-0.408203 -0.143685,-0.149662 0.287653,0.299832 0.431641,0.449219 -0.01519,-0.01218 -0.02795,-0.02852 -0.04297,-0.04102 1.123343,1.17012 1.450591,1.596358 1.996094,2.845703 0.0098,-0.0035 0.01174,-0.01516 0.02734,-0.01172 0.311672,0.06869 0.405627,0.469633 0.570312,0.761719 0.0675,0.04484 0.166236,0.108293 0.222656,0.142578 1.378435,0.837628 1.684394,1.523757 2.207032,2.671875 0.367292,0.168783 0.698017,0.956243 1.080078,1.253906 0.07975,0.06213 -4.058213,-3.942609 0.982422,0.94336 -1.127656,-1.453853 0.123867,0.180286 0.867187,0.96289 0.214096,0.225411 -0.779622,-0.966667 -0.560547,-0.746093 0.341473,0.343808 0.643209,0.726124 0.957031,1.095703 0.01094,0.0039 0.01851,0.0079 0.0293,0.01172 -0.16082,-0.195919 -0.227708,-0.285368 -0.341797,-0.427734 l 0.414063,0.453125 c 1.98142,0.709292 1.369816,0.724742 3.449219,2.767578 0.180087,0.17692 -0.261823,-0.432485 -0.392578,-0.648437 0.923138,1.312779 1.077481,1.379071 1.25,2.126953 0.260692,0.265803 0.490048,0.614726 0.763672,0.845703 0.21804,0.531584 1.125425,2.181377 1.177734,3.414062 0.505038,1.237179 0.400547,1.016805 0.558594,2.765626 -0.0084,2.521557 -1.638206,4.742274 -4.03125,5.498046 -1.158061,0.365739 -2.13354,0.165493 -3.259766,0.03516 -1.32821,-0.218343 -2.674382,-0.0717 -4.011719,-0.04883 -0.750834,-0.169443 -3.239613,0.209766 -3.816406,-0.01562 -0.938241,-0.366768 -1.820072,-0.861733 -2.720703,-1.314454 0.07194,0.06091 0.264719,0.210799 0.232422,0.191407 -0.142485,-0.08555 -0.27341,-0.188832 -0.410156,-0.283203 -0.04046,-0.01996 -0.08053,-0.04084 -0.121094,-0.06055 -0.003,-0.0027 -0.001,-0.0013 -0.0039,-0.0039 0.01796,0.483427 0.04031,0.967014 0.04492,1.449219 -0.01555,1.50223 -0.01944,3.005516 -0.01563,4.507813 0.0033,1.501082 2.05e-4,3.000869 0,4.501953 2.55e-4,1.497478 6e-5,2.994709 0,4.492187 -0.160874,0.758075 0.224253,3.169298 0,3.744141 -0.407137,1.043639 -0.980391,2.014241 -1.470703,3.021484 -0.853985,0.853983 -1.425227,1.449512 -2.460937,1.427735 -0.223581,1.427707 -0.783479,3.96319 -0.72461,4.15039 0.359783,1.335139 0.201841,2.853385 0.166016,4.230464 -0.326615,0.64871 -0.642312,1.30238 -0.96875,1.95118 0.01096,-0.005 0.01529,-0.0184 0.0293,-0.0195 0.147085,-0.0122 0.0533,0.29113 0.07227,0.4375 0.03689,0.28461 0.06389,0.57024 0.0957,0.85546 0.153889,1.91043 0.0073,3.82693 0.0098,5.74024 -0.227595,0.40697 -0.456001,0.81373 -0.683593,1.2207 -0.0036,0.20132 -0.0087,0.46381 -0.0078,0.61719 1.3e-4,0.0213 0.0099,0.0497 0.01172,0.0723 0.457159,0.35005 0.915325,0.7701 1.367187,1.28711 1.810092,2.07108 2.950388,3.32701 3.722657,5.77539 0.04381,0.001 0.05846,-0.004 0.117187,-0.002 1.000841,1.21396 1.596352,2.51719 2.255859,3.91797 0.414519,0.88044 0.268333,-0.14309 0.664063,1.5293 1.015957,0.77518 0.948307,1.72917 1.746094,3.31054 0.145999,0.2894 -0.165446,-0.62796 -0.248047,-0.9414 0.170027,0.32627 0.50967,0.94658 0.738281,1.5332 0.08398,0.15842 0.178192,0.32998 0.224609,0.43164 0.116876,0.25599 0.213786,0.5218 0.308594,0.78711 0.131077,0.10818 0.252928,0.23135 0.371094,0.35938 0.515349,0.2252 1.030158,0.45308 1.544922,0.67968 0.372215,0.45029 0.547431,0.64042 0.773437,0.89844 0.02285,0.0167 0.03528,0.0218 0.05859,0.0391 0.583849,0.43253 1.141158,1.3314 -0.05859,-0.0391 -1.230011,-0.89843 -1.781913,-0.95182 -1.949219,-0.51172 0.605161,0.67607 1.046228,1.4406 1.451172,2.25196 0.0041,4.8e-4 0.0032,-0.005 0.0078,-0.004 0.408521,0.0905 0.521684,0.65188 0.783203,0.97852 1.078661,1.51231 2.066671,3.11172 3.347656,4.46874 0.273656,0.2899 0.64761,0.4707 0.917969,0.76368 0.556065,0.60258 1.067937,1.24659 1.601563,1.86914 1.687533,2.07677 1.183217,1.32509 2.591796,3.59375 0.316271,0.13923 0.634173,0.27463 0.951172,0.41211 1.258735,1.16617 2.037281,2.1742 2.554688,3.53906 0.226752,0.13091 0.424476,0.32873 0.646484,0.4707 2.122981,1.93991 3.922463,4.03152 5.265625,6.52539 0.04456,0.0337 0.260118,0.21459 0.392578,0.33008 -0.03522,-0.0318 -0.02778,-0.0235 -0.06445,-0.0566 -0.181134,-0.16357 0.747629,0.62703 0.558594,0.47266 -0.321808,-0.2628 -0.327321,-0.27057 -0.494141,-0.41602 1.698519,1.53341 1.779813,1.59745 3.105469,2.73438 0.29918,0.24498 0.637712,0.44881 0.898438,0.73437 0.189252,0.20728 1.392563,1.7784 1.974609,3.02149 0.03924,-0.0593 0.487461,0.66142 1.705078,1.76562 1.295077,1.17445 0.263509,-0.24028 1.828125,1.83594 0.09986,0.1325 0.293486,0.35997 0.453125,0.5625 0.28354,0.26102 0.709828,0.65185 0.529297,0.49219 -0.133526,-0.1181 -0.262835,-0.2412 -0.394531,-0.36133 l 1.345703,1.27539 c 0.170719,0.26055 0.28938,0.56308 0.511718,0.78125 0.06385,0.0627 0.178285,-0.0102 0.267579,-0.0156 0.401413,0.41155 0.803666,0.82284 1.205078,1.23438 0.211565,0.411 0.425038,0.82043 0.634765,1.23242 0.336158,0.35206 0.58445,0.61725 0.800782,0.85156 0.092,0.0345 0.242674,0.11659 0.509765,0.29688 1.466895,1.27953 2.184164,3.08383 3.355469,4.58398 0.04792,0.0614 0.170299,-7.6e-4 0.226562,0.0527 0.295367,0.28259 0.532327,0.61972 0.798829,0.92968 0.522801,0.58697 0.907064,1.19222 1.289062,1.83399 0.009,0.01 0.01826,0.0195 0.02734,0.0293 0.472415,0.10947 0.915694,0.23071 1.158203,0.3379 0.699087,0.30897 1.354374,0.71043 2.015625,1.09375 0.210707,0.12215 0.3985,0.27973 0.597656,0.41992 3.120503,2.41964 -1.436591,-1.00632 1.285157,1.11719 0.590389,0.25953 1.175836,0.53133 1.763671,0.79687 0.402996,0.12309 -0.610244,-0.33777 -0.441406,-0.28906 0.707651,0.20417 2.876034,0.95235 3.568359,1.37695 0.606786,0.37213 1.142922,0.84491 1.703126,1.28516 0.369315,0.13829 0.809868,0.29153 1.060546,0.30078 0.05871,0.002 0.112643,-0.0279 0.169922,-0.041 0.631499,0.29991 1.263029,0.60049 1.894532,0.90039 0.0044,-0.01 0.02328,-0.0119 0.06836,-0.008 0.529229,0.071 1.013638,0.35691 1.476562,0.62305 0.439681,0.25277 0.82938,0.58091 1.236329,0.88476 0.867592,0.21835 1.726546,0.47386 2.597656,0.67774 0.02635,0.006 0.03919,-0.0377 0.05859,-0.0566 0.09599,-0.004 0.198665,-0.0512 0.287109,-0.0137 0.895269,0.37979 1.295231,0.55399 1.603515,0.71874 0.131828,-0.0445 0.296872,-0.0149 0.439454,-0.0312 1.268082,-0.14663 2.470619,0.16463 3.523437,0.79492 0.07858,-0.0132 0.215072,0.001 0.289063,-0.01 0.265656,-0.037 0.533656,-0.0676 0.800781,-0.0918 0.966653,-0.0874 0.982013,-0.069 1.951173,-0.082 0.28785,0.008 0.59885,-0.0906 0.86328,0.0234 0.60901,0.26248 1.19185,0.5788 1.76758,0.91016 0.15194,0.045 0.29061,0.0943 2.15234,0.51367 1.07156,0.46585 2.09792,0.12774 3.24219,0.0684 1.69965,0.49969 2.45178,0.70967 2.94141,0.84375 0.15046,0.0357 0.27349,0.0558 0.41015,0.0957 0.0372,-0.008 0.0109,-0.0111 0.1211,-0.0293 0.24043,-0.0398 0.48301,-0.064 0.7246,-0.0957 5.26311,1.15954 1.06755,0.008 3.6504,1.05469 0.26137,0.1059 -0.4011,-0.30891 0.17773,-0.21485 0.82811,0.13463 1.64446,0.33177 2.4668,0.49805 0.0979,0.0221 0.22333,0.0692 0.35742,0.12305 1.18879,-8.4e-4 2.37751,0.002 3.56641,0.002 1.49799,-10e-4 2.99614,-0.002 4.49414,-0.002 1.4974,9e-5 2.99478,0 4.49218,0 -0.11691,0.0554 -0.0359,0.067 0.13086,0.0586 0.52847,-0.34264 1.13793,-0.68719 1.49414,-0.80273 0.61582,-0.19976 1.2874,-0.12737 1.93164,-0.19141 1.51884,0.24377 3.02974,0.23887 4.5586,0.18945 1.53861,-0.0288 3.07844,5e-5 4.61718,0 1.08843,-0.004 2.17724,-0.002 3.26563,-0.002 0.59565,-0.35804 1.18965,-0.69224 1.34961,-0.74414 1.28569,-0.41716 2.72928,-0.12748 4.03125,0.0176 1.35497,0.0543 2.71195,-0.0344 4.06836,-0.0352 1.31405,0.0156 2.62724,0.01 3.94141,0.01 0.23866,-0.14385 0.3261,-0.19298 0.49804,-0.29492 0.18622,-0.14501 0.514,-0.38734 1.03906,-0.75977 2.04697,-0.58827 1.73737,-0.65622 3.31446,-0.58398 0.33374,-0.17228 0.6667,-0.34643 1,-0.51953 -0.35416,0.0539 -0.47147,0.0729 0.0254,-0.0137 -0.009,0.004 -0.0169,0.009 -0.0254,0.0137 0.43045,-0.0655 1.1745,-0.16477 1.90429,-0.24414 1.25718,-0.62245 1.20434,-0.57293 2.65625,-0.71485 -0.0835,-0.0668 0.67778,-0.39271 1.35352,-0.61719 0.66978,-0.32896 1.37944,-0.57179 2.06836,-0.85937 1.60703,-0.0384 1.65382,-0.0466 2.11719,0.008 0.21178,-0.41233 0.72021,-0.71704 1.29297,-0.94922 0.0193,-0.0394 0.0567,-0.0921 0.0703,-0.12695 l 2.87695,-2.00781 c -0.18829,0.0554 -0.73202,0.26816 -0.56445,0.16601 0.37427,-0.22816 0.77311,-0.42621 1.19336,-0.55078 0.32237,-0.0956 0.71874,-0.31925 1.07031,-0.41601 0.0958,-0.0365 0.19162,-0.0737 0.28711,-0.11133 -0.0641,-0.17435 0.51106,-0.5958 0.82812,-0.69922 0.4642,-0.47169 0.79041,-0.7696 -0.084,0.0332 2.11296,-2.01776 1.01213,-1.32074 2.93945,-1.86719 0.0172,-0.0245 0.0315,-0.0426 0.0488,-0.0664 -0.0528,-8.2e-4 -0.12329,0.0143 -0.16211,0.002 -0.18392,-0.0612 0.0919,-0.1717 0.38086,-0.27344 0.0378,-0.0448 0.0814,-0.10798 0.11524,-0.14453 0.37459,-0.40446 0.83137,-0.71493 1.30273,-1.00781 0.1406,-0.24837 0.25801,-0.45571 0.52344,-0.93945 -0.0524,0.0524 -0.20657,0.21263 -0.15625,0.1582 0.58881,-0.63693 1.22237,-1.23442 1.77344,-1.9043 0.0295,-0.0358 0.0222,-0.0375 0,-0.0254 0.10203,-0.0749 0.20089,-0.15336 0.30273,-0.22851 -0.0949,0.0644 -0.13907,0.0843 -0.0781,0.0156 0.19404,-0.22086 0.41683,-0.41282 0.64649,-0.59765 1.14168,-1.24033 1.32203,-1.33201 2.03906,-1.51172 0.42039,-1.36762 0.80509,-1.10315 2.69336,-2.28711 -0.0341,0.0196 -0.0722,0.0341 -0.10547,0.0547 0.63017,-1.10265 -0.91558,0.26103 0.75977,-1.93554 0.42341,-0.55516 0.95309,-1.01969 1.4707,-1.49219 0.17111,-0.30689 0.34799,-0.6111 0.5,-0.92773 0.0582,-0.12125 -0.17153,0.20735 -0.25781,0.31054 -0.0827,0.16707 -0.32889,0.66799 -0.24805,0.5 1.08259,-2.24977 0.79917,-1.97282 1.95899,-3.4707 -0.70369,5e-5 -0.22352,0.021 0.71484,-1.03711 0.2285,-0.51771 0.45688,-1.0351 0.68555,-1.55273 -0.1072,0.18822 -0.42565,0.7548 -0.32227,0.56445 0.40623,-0.73884 0.81251,-1.47796 1.21875,-2.2168 -0.005,-0.0153 -0.007,-0.0583 -0.0156,-0.0449 -0.14627,0.22056 -0.25971,0.46126 -0.40625,0.68164 -0.0218,0.0328 -0.10613,0.10824 -0.0937,0.0703 0.2598,-0.86343 0.5638,-1.71189 0.8457,-2.56836 0.12393,-0.18582 0.199,-0.41622 0.37109,-0.55859 0.15457,-0.12788 0.32662,-0.23346 0.49024,-0.34961 0.1046,-0.40215 0.22299,-0.85259 0.43164,-1.7207 0.1469,-0.25757 0.31319,-0.50412 0.4414,-0.77149 0.52143,-1.0874 -0.48943,0.86643 -0.34765,0.4961 0.31799,-0.83066 0.64391,-1.65956 1,-2.47461 -0.0432,0.0652 -0.0847,0.13153 -0.12696,0.19726 -0.0375,0.0542 -0.1323,0.2246 -0.11132,0.16211 0.27902,-0.83107 0.5606,-1.66166 0.88867,-2.47461 -0.0105,0.0152 -0.0217,0.0221 -0.0312,0.0391 -0.0113,0.0174 0.0364,-0.0562 0.0332,-0.0508 0.005,-0.0117 0.009,-0.0218 0.0137,-0.0332 0.0706,-0.17382 0.40183,-0.63267 0.31055,-0.46875 -0.0972,0.17462 -0.35496,0.55334 -0.32422,0.50195 -5.7e-4,0.002 -5.5e-4,0.007 -0.002,0.01 1.37944,-2.12415 2.00812,-2.5525 1.16406,-1.94336 -0.15455,0.26503 -0.30834,0.52989 -0.46289,0.79492 -0.0302,0.015 -0.0803,0.0772 -0.0898,0.0449 -0.3054,-1.03479 0.37672,-2.5085 0.7207,-3.29493 -0.0575,-0.0568 -0.0378,-0.2464 -0.0137,-0.34375 0.22138,-0.89379 0.46827,-1.78171 0.79492,-2.64258 -0.2505,-1.53371 -0.20328,-3.09197 -0.16016,-4.63867 0.0228,-1.4622 5e-5,-2.9244 -0.002,-4.38672 0.004,-1.49665 0.002,-2.99163 0.002,-4.48828 -4e-4,-1.49809 -1e-5,-2.99605 0,-4.49414 -2e-5,-0.63912 0,-1.27855 0,-1.91797 -0.49827,-0.76617 -0.70562,-1.40656 0,-1.58203 1e-5,-0.20768 0,-0.4154 0,-0.62304 -0.46189,-0.83627 -0.56798,-1.03976 -0.58593,-1.99805 -0.39748,-2.1485 0.4104,2.0866 -0.62696,-2.31836 -0.0281,-0.11922 0.04,-0.24537 0.0273,-0.36719 -0.0414,-0.39799 -0.22715,-0.77728 -0.13868,-0.79492 0.10086,-0.0201 0.16408,0.12547 0.2461,0.1875 -0.54197,-1.17982 -1.0022,-2.4018 -1.625,-3.54102 -0.0971,-0.17753 -0.0197,0.13914 0.0644,0.46289 0.0348,0.0777 0.0739,0.15337 0.10547,0.23243 0.0228,0.057 0.0146,0.24319 0,0.18359 -0.0229,-0.0932 -0.0656,-0.26242 -0.10547,-0.41602 -0.15925,-0.35496 -0.33889,-0.7008 -0.48242,-1.0625 -1.0718,-2.70085 -0.89341,-2.15483 -1.12695,-4.51953 -0.93063,-1.06292 -1.00912,-1.26249 -1.57813,-3.5 0.37889,0.20767 -0.24948,-0.8282 -0.35156,-1.24804 -0.19458,-0.8003 -0.3284,-1.61477 -0.43359,-2.43164 -0.0135,-0.10448 -0.026,-0.32707 0.0293,-0.36914 -0.93467,-1.78611 -1.0716,-2.566279 -0.77734,-4.593754 -0.25837,-0.526685 -0.50734,-1.057695 -0.66992,-1.619141 -0.39705,-1.371176 0.12917,-2.919409 -0.5293,-4.25 -1.14278,-2.309261 -0.72496,-4.04564 0.34961,-5.023437 -0.87392,-1.856443 -0.78518,-3.40218 -0.16016,-4.478516 -0.40071,-0.69145 -0.64858,-1.489447 -0.81836,-2.25586 -0.0375,-0.169128 -0.0463,-0.340781 -0.0449,-0.513671 -0.21016,-0.190298 -0.49197,-0.773085 -0.63281,-1.052735 -0.16212,-0.32192 -0.28252,-0.661774 -0.39258,-1.005859 -0.21805,-0.320183 -0.50135,-0.758354 -0.51953,-0.802735 -0.0589,-0.143742 -0.10703,-0.293338 -0.16211,-0.439453 -0.14608,-0.107041 -0.40153,-0.692621 -0.51172,-0.943359 -0.0744,-0.169207 -0.12572,-0.346717 -0.18555,-0.521484 -0.14351,0.07326 -0.45031,-0.69184 -0.58203,-0.994141 -0.0905,-0.207786 -0.13242,-0.318683 -0.20703,-0.494141 -0.18098,0.02146 -0.535,-1.001214 -0.8164,-1.333984 -0.14504,-0.278689 -0.29196,-0.556477 -0.43555,-0.835938 -0.006,0.0043 -0.0104,0.0098 -0.0293,-0.0039 -0.69498,-0.49952 -1.7039,-2.436991 -1.91406,-3.113281 -0.0407,-0.131009 -0.0527,-0.26818 -0.0801,-0.402344 -0.58817,-0.54037 -1.19157,-1.241756 -1.36914,-1.542969 -0.16892,-0.286546 -0.30935,-0.587618 -0.44336,-0.892578 v -0.002 c -0.26007,-0.118168 -0.67016,-0.49311 -1.2168,-1.359375 -0.13511,-0.214115 -0.30112,-0.644242 -0.45898,-1.099609 -0.29003,-0.145731 -0.50383,-0.524398 -0.74414,-0.837891 -1.39793,-1.320051 -1.33267,-1.198239 -1.73047,-2.736328 -0.005,0.04638 0.002,0.09318 -0.0156,0.138672 -0.073,0.191924 -0.18783,-0.11873 -0.28907,-0.423828 -0.0334,-0.01508 -0.0764,-0.04572 -0.10742,-0.05664 -0.69727,-0.984665 -1.39453,-1.96846 -2.0918,-2.953125 0.0463,0.172305 0.22705,0.672567 0.13868,0.517578 -0.21317,-0.37384 -0.4004,-0.769514 -0.51758,-1.183593 -0.0433,-0.152842 -0.0591,-0.311786 -0.084,-0.46875 -0.6139,-0.454215 -1.36096,-0.788864 -1.76172,-1.431641 -0.19041,-0.305519 -0.29652,-0.647019 -0.38281,-0.998047 -0.29596,-0.236571 -0.61306,-0.786816 -0.80859,-1.089844 -0.10848,-0.168107 -0.19696,-0.347538 -0.2793,-0.529297 -0.1394,-0.09115 -0.28109,-0.186033 -0.38867,-0.232421 -1.61478,-1.679677 -2.18987,-2.181955 -2.31641,-2.207032 0.0291,0.04351 0.0479,0.07794 0.0625,0.105469 -0.0249,-0.03441 -0.059,-0.08276 -0.084,-0.117187 -0.0265,0.0028 -0.001,0.05772 0.0293,0.11914 0.0138,0.01157 0.0249,0.02583 0.0391,0.03711 0.0514,0.04099 0.0474,0.01853 0.0254,-0.02539 1.00276,1.387856 0.1201,0.355865 -0.0645,-0.01172 -0.25329,-0.211681 -0.46408,-0.467561 -0.66602,-0.732422 -0.0904,-0.09059 -0.17841,-0.183514 -0.26562,-0.277343 -0.18432,0.07719 -0.49169,-0.05141 -0.81055,-0.210938 -0.15673,-0.02524 -0.35473,-0.108849 -0.5,-0.113281 -0.30492,-0.0093 -0.61099,-0.0091 -0.91602,-0.01367 -0.4937,-0.1535 -1.03008,0.155356 -1.52539,0.03906 -0.0163,-0.0038 -2.71871,-0.657667 -3.2832,-1.199219 -0.24323,-0.233348 -0.42624,-0.447976 -0.625,-0.667969 -1.83446,-0.341861 -0.79482,-0.05992 -2.45703,-0.845703 -0.12334,-0.05831 0.46872,0.263752 0.33594,0.232422 -0.48008,-0.113272 -0.93241,-0.322734 -1.39844,-0.484375 -1.53134,-0.384472 -0.54019,-0.08047 -2.58594,-0.970703 -0.20032,-0.08717 -0.43849,-0.111093 -0.60547,-0.251953 -0.21861,-0.18441 -0.41731,-0.391103 -0.62109,-0.591797 -0.0315,-0.02902 -0.0636,-0.05755 -0.0918,-0.08789 -0.0714,-0.07126 -0.14804,-0.136938 -0.21875,-0.208984 -0.836,0.08432 -1.6812,0.108876 -2.46289,-0.140625 -0.1306,-0.04169 -0.76494,-0.396974 -1.39844,-0.771485 -1.10325,-0.01155 -2.2007,0.01211 -3.30273,0.208985 -0.57456,-0.04914 -1.15813,-0.02885 -1.72266,-0.146485 -0.52413,-0.109217 -1.02203,-0.324658 -1.51758,-0.527344 -0.19597,-0.08015 -0.67779,-0.183653 -0.6914,-0.298828 -0.22826,0.0081 -0.36979,0.02103 -0.13672,0.05664 -0.80388,0.08612 -1.92497,0.248479 -2.69531,0.107422 -0.70988,-0.129988 -1.40729,-0.357336 -2.06055,-0.664063 -0.39834,-0.187034 -1.30604,-0.44809 -1.11328,-0.783203 -0.10104,-0.01419 -0.24069,-0.03289 -0.3125,-0.04102 -0.69595,-0.0787 -1.90808,-0.369902 -2.57617,-0.771485 -0.06,-0.03605 0.13522,-0.0339 0.20312,-0.05078 -0.23381,-0.05416 -2.02511,-0.421262 -2.15234,-0.605469 -0.1047,-0.151594 0.72975,-0.05972 0.54687,-0.08203 -1.43324,-0.174885 -2.4725,0.05441 -3.69531,-0.837891 -1.02577,-0.291893 -2.49367,-0.93429 -3.31055,-1.386718 -0.58711,-0.01902 -1.18798,-0.01702 -1.75,-0.185547 -0.29152,-0.08742 -0.81369,-0.34842 -1.28906,-0.621094 -0.85875,-0.03595 -1.68553,-0.164707 -2.57031,-0.474609 -0.16326,-0.05718 -0.59502,-0.110048 -0.47656,-0.21875 -0.0437,0.0067 -0.0872,0.01449 -0.13086,0.02148 -2.43904,0.0185 -2.04327,0.315112 -4.48828,-1.283203 -0.0644,-0.04211 -0.16148,-0.138919 -0.25196,-0.212891 -0.72479,0.05312 -1.42423,0.04817 -2.21679,-0.232422 -0.42226,-0.149487 -0.80703,-0.382365 -1.1836,-0.630859 -1.47959,0.135297 -2.82686,0.08626 -4.31836,-0.507812 -0.21257,-0.08467 -0.69372,-0.15794 -0.7539,-0.296876 -1.81187,0.103612 -3.60718,0.361602 -5.31836,-0.509765 -0.29824,-0.08255 -0.54073,-0.145972 -0.98828,-0.283203 -0.4593,-0.14083 -0.88409,-0.371493 -1.30469,-0.609375 -0.84083,-0.02979 -1.65433,-0.147186 -2.52735,-0.435547 -0.21204,-0.07004 -0.72216,-0.06959 -0.61523,-0.265625 0.007,-0.01206 0.0227,-0.01913 0.0332,-0.0293 -0.12626,0.01324 -0.2525,0.0211 -0.3789,0.03125 -1.95172,-0.150658 -1.52037,0.0097 -3.14258,-0.693359 -1.02822,-0.109007 -2.351046,-0.668112 -2.859376,-0.835938 -0.131078,-0.152905 -0.354052,-0.351711 -0.580078,-0.550781 -0.002,-6.35e-4 -0.005,-0.0027 -0.0078,-0.0039 -0.02504,-0.02202 -0.0369,-0.0402 -0.0625,-0.0625 -0.563316,-0.183164 -0.464647,-0.146687 -0.708984,-0.21875 -0.0074,0.260364 -0.0042,0.520919 -0.01758,0.78125 -0.08218,2.306485 0.740333,4.497141 -0.455079,6.710937 -0.362988,0.365646 -0.726452,0.732415 -1.089843,1.097656 -0.221021,0.252478 -0.438152,0.508134 -0.681641,0.734375 -0.130365,0.23356 -0.275939,0.452602 -0.488281,0.605469 -0.237416,0.170918 0.207992,-0.547078 0.3125,-0.820312 -4.036967,5.330694 0.187192,1.628512 -7.669922,-0.527344 -0.640145,-0.175645 0.613946,1.225038 0.628906,1.888672 0.0086,0.379796 -0.432835,-0.625493 -0.607422,-0.962891 -0.287749,-0.556091 -0.489412,-0.956704 -0.646484,-1.292969 -0.57113,0.113475 -1.162058,0.191346 -1.703125,0.359375 -2.389379,-0.402113 -1.435412,-0.02723 -4.039062,-1.832031 -0.174138,-0.12071 -0.341036,-0.264786 -0.455079,-0.443359 -0.208489,-0.326465 -0.390874,-0.668015 -0.570312,-1.011719 3.26e-4,0.06006 -0.01572,0.102853 -0.08008,0.09961 0.06265,0.07845 0.275493,0.284663 0.1875,0.236328 C 75.702249,29.24077 77.376784,30.144253 75,27.654297 c -0.239049,-0.250432 0.369596,0.586329 0.554688,0.878906 l -0.408204,-0.566406 c -0.09882,-0.113923 -0.326128,-0.369222 -0.601562,-0.669922 1.2e-4,0.0258 0.0047,0.05342 -0.0098,0.07422 -0.06372,0.09187 -1.802406,-1.376496 -2.117187,-1.425782 -0.401328,-0.375208 -0.610345,-0.561239 -0.853516,-0.78125 0.636607,0.899133 -1.987805,-1.798479 0,0 -0.08822,-0.124593 -0.386149,-0.477828 -0.644531,-0.787109 -1.647534,0.0056 -3.303075,-0.0326 -4.900391,-0.240234 z M 112.48242,192.98828 c -0.0126,0.003 -0.0349,0.007 -0.041,0.01 0.40957,0.10919 0.2972,0.067 0.041,-0.01 z m -0.041,0.01 c -0.0515,-0.0137 -0.30004,-0.0866 -0.36914,-0.10547 -0.40773,-0.0968 -0.692,-0.1326 0.46484,0.33789 0.0266,0.0108 0.0263,-0.0639 0.01,-0.0859 -0.0893,-0.10638 -0.1548,-0.12633 -0.10547,-0.14648 z M 61.025391,166.74219 60.90625,166.62891 c 0.0043,0.005 0.0075,0.0102 0.01172,0.0156 0.03565,0.0327 0.07168,0.0651 0.107422,0.0977 z m -0.119141,-0.11328 c -0.0051,-0.007 -0.01042,-0.011 -0.01563,-0.0176 -0.131744,-0.12128 -0.326868,-0.30608 -0.246094,-0.22852 z M 125.26758,25.681641 c 0.17481,0.123659 0.16359,0.08777 0.11914,0.02539 -0.0363,-0.0066 -0.0766,-0.01811 -0.11328,-0.02539 -0.002,3.46e-4 -0.003,-3.9e-4 -0.006,0 z m 0.38281,0.214843 c -0.44841,-0.04699 1.51438,1.15822 0.25391,0.08984 -0.0701,-0.02215 -0.21825,-0.08611 -0.25391,-0.08984 z m -43.857421,1.261719 c -0.0132,0.0071 -0.02765,0.01503 -0.03906,0.02148 0.07985,0.07287 0.137638,0.11587 0.0957,0.05273 -0.0172,-0.02589 -0.03899,-0.04864 -0.05664,-0.07422 z M 291.88086,39.878906 c 1.51101,0.02745 3.26867,0.288627 5.30469,0.783203 17.97506,4.366371 45.74792,23.960496 44.53711,31.421875 -1.24951,7.699722 -26.66297,25.783683 -44.25,31.488286 -2.24315,0.72759 -4.0072,1.07175 -6.04688,1.18164 -2.64348,0.1424 -2.97197,0.0929 -4,-0.60547 -1.38577,-0.94138 -2.93482,-3.20812 -3.84961,-5.628909 -6.04733,-16.002893 -4.45763,-49.667373 2.6836,-56.808593 1.27221,-1.272209 3.10274,-1.877779 5.62109,-1.832032 z m 283.51953,0 c 1.51101,0.02745 3.27061,0.288627 5.30664,0.783203 17.97504,4.366371 45.74597,23.960496 44.53516,31.421875 -1.24951,7.699722 -26.66101,25.783683 -44.24805,31.488286 -2.24314,0.72759 -4.00915,1.07175 -6.04883,1.18164 -2.64349,0.1424 -2.97197,0.0929 -4,-0.60547 -1.38579,-0.94138 -2.9348,-3.20812 -3.84961,-5.628909 -6.04733,-16.002893 -4.45569,-49.667373 2.68555,-56.808593 1.2722,-1.272209 3.10079,-1.877779 5.61914,-1.832032 z M 168.7832,43.167969 c 0.0214,0.04076 0.0135,0.02535 0.0391,0.07422 0.0914,0.06092 0.18206,0.122674 0.27343,0.183593 -0.0652,-0.08299 -0.14313,-0.179291 -0.19531,-0.248047 -0.0392,-0.003 -0.0781,-0.0065 -0.11719,-0.0098 z m 11.45508,4.546875 c -0.0579,-0.0052 0.165,0.857556 0.3711,1.099609 0.0389,0.04563 0.0893,0.08322 0.13671,0.123047 -0.14045,-0.394349 -0.27615,-0.793353 -0.46484,-1.164062 -0.0206,-0.04048 -0.0347,-0.05786 -0.043,-0.05859 z m 1.63086,2.49414 c 0.004,0.02322 0.006,0.04173 0.01,0.06445 0.0139,0.01154 0.025,0.02166 0.0391,0.0332 -0.006,-0.0272 -0.01,-0.0549 -0.0156,-0.08203 -0.0115,-0.0062 -0.0213,-0.0089 -0.0332,-0.01563 z m 2.17774,2.322266 c -0.0291,0.05403 -0.0602,0.264289 -0.0273,0.341797 0.0427,0.100597 0.10409,0.191265 0.15625,0.287109 -0.0275,-0.208355 -0.0516,-0.418044 -0.10351,-0.621094 -0.007,-0.02719 -0.0157,-0.02602 -0.0254,-0.0078 z M 36.058594,54.164062 c 0.0569,0.06428 0.108865,0.133056 0.167968,0.195313 0.05451,0.05742 -0.121632,-0.149783 -0.148437,-0.185547 -0.0073,-0.0038 -0.01223,-0.006 -0.01953,-0.0098 z m 0.140625,0.07227 0.746093,0.816406 c 0.402229,-0.133283 -0.167388,-0.506041 -0.746093,-0.816406 z m 765.011721,0.980469 c -3.26852,-0.03421 -6.5267,0.07592 -8.66602,0.341797 -28.86572,3.587495 -52.17831,24.996217 -57.9043,53.173826 -1.81479,8.93691 -1.81519,18.29044 0,27.15235 5.13011,25.04546 24.23193,45.16389 48.92774,51.52929 3.40204,0.87689 8.68084,1.78321 11.69726,2.00977 13.09686,0.98364 26.68533,-2.01153 38.08008,-8.39258 1.91289,-1.07123 3.62017,-1.94727 3.79297,-1.94727 0.17277,0 0.6152,0.48859 0.98438,1.08594 1.23792,2.00298 4.98001,5.21234 7.47851,6.41406 4.26838,2.05302 6.91543,2.54736 13.72071,2.56446 l 5.97851,0.0156 0.98633,-0.94531 c 0.54304,-0.51962 1.13711,-1.49486 1.31836,-2.16797 0.22082,-0.8162 0.2913,-12.7056 0.2168,-35.69531 -0.12169,-37.55097 -0.078,-36.58033 -2.00977,-44.25586 -6.71312,-26.672959 -28.68947,-46.479974 -55.875,-50.359376 -2.17996,-0.311081 -5.45805,-0.489231 -8.72656,-0.523437 z m 289.68946,0.349609 c -15.4498,-7.26e-4 -26.7919,0.130766 -28.8008,0.333985 -20.9228,2.116535 -36.645,12.944321 -40.5625,27.935547 -1.3806,5.283338 -1.6169,16.369902 -0.4883,22.841792 2.3649,13.56134 12.4159,24.99937 26.1133,29.71485 6.2124,2.13867 6.1748,2.13645 28.2637,2.34375 22.4854,0.21102 21.7876,0.13833 23.832,2.46679 1.2225,1.39529 1.4017,2.15186 1.2227,5.24415 -0.1773,3.06386 -1.0534,4.61843 -3.3672,5.97851 l -1.5274,0.89844 -25.1191,0.17578 c -28.0461,0.19578 -26.5592,0.0776 -31.8789,2.54102 -10.6082,4.91247 -17.7731,15.33207 -18.2656,26.5625 -0.1527,3.48239 -0.1211,3.74092 0.5976,4.80078 0.4176,0.616 1.2606,1.37454 1.8731,1.68554 1.0499,0.53309 3.3545,0.55885 40.3125,0.46485 39.149,-0.0995 39.205,-0.10049 42.3047,-0.8086 8.6785,-1.98259 15.9611,-5.85793 21.7382,-11.57031 4.5548,-4.50367 7.4493,-9.56123 9.1582,-15.99609 0.7418,-2.79356 0.825,-3.76367 0.961,-11.30664 0.2017,-11.18626 -0.405,-15.12722 -3.2656,-21.2168 -2.1204,-4.51392 -4.3798,-7.60965 -8.6211,-11.8125 -5.3569,-5.30841 -9.2457,-7.48456 -15.8731,-8.88477 -2.8623,-0.60472 -4.315,-0.64598 -24.6426,-0.67968 l -21.5996,-0.0352 -1.6289,-0.85937 c -5.7786,-3.04914 -6.201,-10.439605 -0.7715,-13.505864 l 1.7618,-0.99414 16,-0.1875 c 18.1426,-0.211753 17.7872,-0.167861 23.4042,-2.869141 9.1912,-4.419901 15.7309,-13.311506 17.2813,-23.492187 0.7845,-5.15168 0.2232,-7.848545 -1.9023,-9.144532 -0.9934,-0.60569 -1.7967,-0.6237 -26.5098,-0.625 z m -641.82618,0.244141 c -0.9525,0.01548 -1.90851,0.05346 -2.86914,0.115234 -21.40349,1.376374 -40.66196,14.88649 -50.80078,35.638672 -3.55712,7.280762 -5.67223,14.579907 -6.72461,23.199217 -0.66378,5.43635 -0.47919,22.42383 0.30469,27.92774 1.63094,11.45171 6.48059,20.79701 15.70312,30.26757 4.67881,4.80467 8.00337,7.2646 13.45898,9.96094 7.8097,3.85979 15.68866,5.9362 27.19922,7.16406 2.96864,0.31667 18.40239,-0.0887 22.24024,-0.58398 11.4128,-1.47286 21.47867,-4.35104 29.75976,-8.50781 5.31123,-2.66602 6.04434,-4.25768 4.15625,-9.02539 -4.04771,-10.22114 -9.62035,-16.9267 -15.9414,-19.18164 -3.23712,-1.15478 -6.55148,-0.9632 -13.6543,0.79101 -8.6832,2.14454 -11.81871,2.56787 -17.43945,2.35352 -2.552,-0.0973 -5.64886,-0.39808 -6.88086,-0.66797 -7.94781,-1.74112 -14.90344,-5.44553 -20.74805,-11.05078 -2.87513,-2.75741 -6.61133,-7.8374 -6.61133,-8.98828 0,-0.60853 0.63803,-0.61914 37.57227,-0.61914 42.18,0 40.55094,0.0835 45.22265,-2.26758 3.34883,-1.68535 5.34367,-3.64509 6.86719,-6.74414 2.20006,-4.47527 2.34578,-8.64594 0.60156,-17.11524 C 503.98739,76.901343 478.60179,55.330801 449.07422,55.810547 Z M 189.25,60.283203 c 0.009,0.03615 0.1045,0.389834 0.15039,0.560547 0.0124,0.01014 0.0206,0.01696 0.0332,0.02734 -0.12162,-0.391061 -0.2059,-0.675502 -0.18359,-0.587891 z m 805.39844,0.09961 c -1.09372,0.0076 -2.48786,0.03275 -4.30078,0.06836 -5.74285,0.112809 -8.16847,0.281606 -9.4668,0.660156 -5.33274,1.554867 -9.79075,5.288944 -12.09961,10.132813 -0.71306,1.496 -1.45464,3.483352 -1.64648,4.416015 -0.23321,1.133766 -0.34766,9.489632 -0.34766,25.212894 0,24.70411 -0.11971,27.40566 -1.44531,32.99023 -2.39372,10.08467 -7.67243,16.39063 -15.51563,18.53516 -2.82134,0.77146 -8.97075,0.78677 -11.83984,0.0293 -7.44553,-1.96629 -12.5593,-7.20206 -15.16992,-15.52929 -1.96381,-6.26418 -1.91017,-5.23063 -2.09766,-40.869143 -0.19114,-36.334371 -0.0143,-33.668821 -2.33594,-34.9375 -0.91692,-0.501046 -1.96344,-0.565468 -9.03711,-0.548828 -7.79049,0.01832 -8.06563,0.0414 -10.55859,0.873047 -4.88397,1.629296 -8.95537,5.142749 -11.18555,9.65625 -2.14103,4.333213 -2.08384,3.284141 -2.08984,38.677734 -0.003,20.07224 0.12103,33.39242 0.33594,35.83984 1.63069,18.57149 9.58318,31.74745 23.29687,38.60352 2.80996,1.40482 8.84379,3.3702 12.68164,4.13086 6.60064,1.30824 15.01289,1.65168 20.97852,0.85742 8.88525,-1.183 19.02157,-4.68799 26.41015,-9.13476 1.46361,-0.8809 2.81403,-1.60157 3.00196,-1.60157 0.48602,0 0.11081,1.35175 -1.12891,4.07227 -3.8055,8.35104 -13.04461,16.14213 -23.02148,19.41406 -4.16102,1.36462 -6.76814,1.81076 -11.67969,1.99805 -5.62073,0.21435 -8.75821,-0.20898 -17.44141,-2.35352 -7.10281,-1.75421 -10.41717,-1.94579 -13.65429,-0.79101 -6.32106,2.25494 -11.8937,8.9605 -15.94141,19.18164 -1.28711,3.25012 -1.2339,5.01264 0.19922,6.54687 1.12547,1.20486 8.01653,4.57593 12.59765,6.16211 6.93933,2.40272 15.50246,4.26694 22.71875,4.94531 2.024,0.19027 4.18479,0.40381 4.80079,0.47461 0.616,0.0708 4.79129,0.0823 9.27929,0.0254 6.17271,-0.0783 9.17344,-0.26207 12.32031,-0.75 8.70936,-1.3504 14.87194,-3.20433 21.44141,-6.45117 5.45562,-2.69634 8.78017,-5.15627 13.45899,-9.96094 9.2678,-9.51706 14.17028,-19.00018 15.66208,-30.29101 0.4095,-3.10014 0.4766,-12.41836 0.4766,-65.2793 0,-61.332291 0,-61.670497 -0.6485,-62.726561 -0.3993,-0.654874 -1.2101,-1.309715 -2.11714,-1.710937 -1.03591,-0.45824 -1.60948,-0.591289 -4.89062,-0.56836 z M 6.0117188,64.228516 c -0.061886,0.869802 -0.098056,1.872198 -0.1171876,2.958984 0.015082,0.0048 0.031562,0.0088 0.046875,0.01367 0.02029,-0.212748 0.034042,-0.402301 0.0625,-0.652344 0.031878,-0.772413 0.023184,-1.546607 0.00781,-2.320312 z m 198.9003912,8.78125 c 0.0312,0.04852 0.0365,0.05152 0.0664,0.09766 -0.0141,-0.02647 -0.0269,-0.05363 -0.041,-0.08008 -5.3e-4,0.003 -0.0309,-0.02623 -0.0254,-0.01758 z m 0.56836,3.142578 c -7.4e-4,0.007 0.0118,0.02242 0.041,0.04883 0.0148,0.01343 0.0225,0.01809 0.0371,0.03125 -0.002,-0.01542 -0.002,-0.02956 -0.004,-0.04492 -0.0132,-0.0035 -0.0737,-0.0402 -0.0742,-0.03516 z m 244.46289,8.748047 c 6.61662,-0.1301 13.31393,1.78424 19.19726,5.945312 2.79091,1.973904 6.53594,5.698941 8.43946,8.394531 2.73773,3.876936 6.00033,11.045696 5.55469,12.207036 -0.14032,0.36561 -5.51154,0.4375 -32.81836,0.4375 h -32.65039 l 0.01,-0.88086 c 0.014,-1.24628 2.22695,-6.4116 4.01367,-9.36719 6.42394,-10.62643 17.2262,-16.519496 28.25391,-16.736329 z m -434.072266,2 c -0.0076,-0.02287 -0.148418,0.0569 -0.302735,0.166015 -0.01748,0.06541 -0.02042,0.09414 -0.04297,0.177735 -0.01289,-0.02205 -0.04567,-0.05775 -0.07031,-0.08984 -0.01891,0.01491 -0.03846,0.02771 -0.05664,0.04297 0.02282,0.04133 0.04223,0.0843 0.06641,0.125 0.124804,-0.126048 0.256458,-0.244745 0.376953,-0.375 0.02314,-0.02501 0.0315,-0.04027 0.0293,-0.04687 z m 784.669926,4.699218 c 2.8235,-0.0042 5.71768,0.361706 8.63867,1.111329 9.91363,2.544156 16.86385,8.743722 20.16797,17.988282 1.67277,4.68025 2.18124,7.96414 1.99218,12.86523 -0.3263,8.45975 -3.49329,15.37459 -9.7539,21.30078 -4.29293,4.06362 -9.4378,6.72244 -15.07422,7.79102 -2.46217,0.46678 -8.56246,0.63104 -10.60547,0.28516 -2.37949,-0.40285 -6.86932,-1.77995 -9.07031,-2.78321 -8.49661,-3.87294 -13.60588,-10.22773 -16.09571,-20.01758 -2.67267,-10.50848 0.0388,-20.96319 7.47461,-28.81835 6.02012,-6.359671 13.85566,-9.710056 22.32618,-9.722661 z M 202.59375,101.83203 c 0.005,0.0163 0.007,0.0354 0.0137,0.0508 0.009,0.0108 0.0199,0.0206 0.0293,0.0312 -0.0166,-0.0304 -0.0268,-0.0522 -0.043,-0.082 z m -183.447266,1.14649 c -0.0792,0.15474 -0.15782,0.30986 -0.240234,0.46289 0.06033,-0.074 0.126666,-0.14344 0.179688,-0.22266 0.04027,-0.0602 0.04771,-0.15411 0.06055,-0.24023 z m 186.046876,6.50195 c 0.11513,0.15681 0.17293,0.23981 0.42578,0.58594 0.0257,0.0352 0.15126,0.0781 0.12305,0.0449 -0.23912,-0.28182 -0.36418,-0.42031 -0.54883,-0.63086 z M 30.125,129.7793 c 0.186934,0.20623 0.371317,0.4168 0.583984,0.58789 0.194445,0.15643 -0.306301,-0.40161 -0.507812,-0.54883 -0.01536,-0.0112 -0.05648,-0.0267 -0.07617,-0.0391 z m 20.646484,26.29101 c 0.01602,0.0316 0.03296,0.062 0.04883,0.0937 0.06519,0.0915 0.257396,0.36713 0.195313,0.27344 -0.169889,-0.25639 -0.140739,-0.21956 -0.244141,-0.36719 z m 155.749996,1.56055 c -0.14528,0.0367 -0.65118,0.29434 -0.81054,0.45508 -0.13819,0.13938 -0.2571,0.29068 -0.3711,0.4414 0.40495,-0.26804 0.81001,-0.53656 1.18164,-0.84765 0.0579,-0.0484 0.0484,-0.061 0,-0.0488 z m -4.0625,6.71289 c 0.0569,-0.0757 -0.17381,0.0928 -0.22265,0.17383 -0.034,0.0565 -0.0881,0.1789 -0.13281,0.26562 0.11438,-0.13368 0.23009,-0.27272 0.35546,-0.43945 z m -137.388668,7.0625 c 0.124241,0.2417 0.24127,0.48693 0.373047,0.72461 0.07224,0.13028 -0.07638,-0.29063 -0.15039,-0.41992 -0.04173,-0.0729 -0.137499,-0.19387 -0.222657,-0.30469 z m 126.046878,7.69141 c -0.0944,-0.004 -0.41362,0.0942 -0.51563,0.18164 -0.25695,0.22025 -0.47684,0.44335 -0.67773,0.65625 0.41252,-0.24827 0.82481,-0.49723 1.19726,-0.79493 0.035,-0.028 0.0296,-0.0417 -0.004,-0.043 z m -113.988284,3.75781 c 0.324084,0.25254 0.318177,0.25324 0.865235,0.67578 0.15011,0.11594 -0.219213,-0.32045 -0.376953,-0.42578 -0.101563,-0.0678 -0.305728,-0.16118 -0.488282,-0.25 z m 104.136714,3.78906 c -0.18593,0.0217 -0.77321,0.15808 -1.1289,0.32617 0.45003,-0.12512 0.86761,-0.22804 1.09961,-0.29492 0.1095,-0.0316 0.10386,-0.0403 0.0293,-0.0312 z m -91.693354,1.99609 c 0.09257,0.0688 0.181573,0.14303 0.277343,0.20704 0.114054,0.0762 0.375056,0.3071 0.375,0.16992 -6.5e-5,-0.15688 -0.249939,-0.19043 -0.375,-0.28516 -0.09255,-0.0305 -0.199063,-0.0654 -0.277343,-0.0918 z m 4.787109,1.47852 c 0.193362,0.11765 0.353685,0.21336 0.683594,0.4375 1.093908,-0.39263 -0.04818,-0.38474 -0.683594,-0.4375 z m 4.125,0.87305 c 0.272768,0.19361 0.536407,0.40239 0.783203,0.63867 0.05297,-0.58381 -0.395718,-0.58368 -0.783203,-0.63867 z m 5.363285,0.53906 c 0.28997,0.16824 0.57928,0.33849 0.86718,0.50977 -0.12636,-0.10996 -0.25127,-0.22104 -0.38867,-0.31641 -0.0923,-0.0641 -0.2918,-0.13074 -0.47851,-0.19336 z" /><path
   style="fill:#000000;stroke-width:0.31999999"
   d=""
   id="path816"
   inkscape:connector-curvature="0" /><path
   style="fill:#000000;stroke-width:0.31999999"
   d=""
   id="path814"
   inkscape:connector-curvature="0" /><g
   inkscape:groupmode="layer"
   id="layer1"
   inkscape:label="Layer 1"
   style="display:inline"><path
     inkscape:connector-curvature="0"
     id="path821"
     d="m 122.14618,198.27477 c -13.00083,-1.1433 -24.760492,-3.59875 -37.439996,-7.81759 -13.342247,-4.43936 -23.580435,-9.35035 -34.72,-16.65431 -7.462051,-4.89269 -11.73936,-8.36109 -17.942655,-14.54941 -9.699945,-9.67653 -18.180063,-22.00954 -18.208688,-26.4817 -0.01961,-3.06309 2.933278,-3.12054 11.421994,-0.2222 3.77358,1.28842 5.614338,1.77783 5.839588,1.55258 0.225249,-0.22525 -0.643331,-1.63534 -2.755467,-4.47335 C 15.623598,112.54089 9.3440656,98.723835 6.7513033,82.124379 5.8782577,76.534942 5.6855728,64.489541 6.4288597,61.967314 c 0.8367777,-2.839476 2.6098117,-4.151949 5.0025263,-3.703072 0.595918,0.111795 3.502532,1.797401 6.459142,3.745792 8.326039,5.486816 12.491265,7.362512 16.431834,7.399628 2.337495,0.02202 3.392219,-0.604976 3.69027,-2.193728 C 38.29228,65.725285 37.83547,64.234357 35.751469,59.835986 33.273166,54.605422 31.162501,51.159285 23.15477,39.26901 17.003638,30.135505 15.814371,28.175017 15.010882,25.843938 12.732533,19.233997 14.555845,12.862756 19.332263,10.74364 c 2.05129,-0.9100804 4.676853,-0.9458622 11.933921,-0.162638 23.768797,2.565263 40.006461,7.044951 53.458995,14.748404 2.350442,1.345955 4.531712,2.394226 4.847267,2.329491 0.917197,-0.18816 0.631223,-1.892782 -0.679536,-4.050522 -0.639715,-1.053082 -2.810112,-3.669341 -4.823107,-5.813909 -3.728509,-3.97221 -4.963619,-5.848388 -4.963619,-7.539916 0,-2.3884112 2.058963,-3.4630896 6.56,-3.4239981 5.488214,0.047665 9.340774,1.1435488 22.239996,6.3262991 9.51852,3.824425 14.05055,5.386712 25.06726,8.641228 13.11749,3.875118 19.67956,6.258211 27.3061,9.916533 20.33198,9.752894 35.39343,24.350695 45.07978,43.69203 5.93704,11.854854 9.39201,23.847676 10.72935,37.243578 0.49679,4.97621 0.21111,18.07693 -0.48922,22.43416 -2.2799,14.18502 -7.47156,26.53227 -15.15761,36.04918 -11.96373,14.81353 -29.67146,23.79044 -52.66691,26.69939 -4.57906,0.57926 -20.87193,0.86013 -25.62875,0.44182 z m 20.96,-8.97378 c 29.09599,-2.69772 50.31411,-18.21359 58.88033,-43.05656 3.54092,-10.26905 4.18512,-21.71377 1.73713,-30.86115 -1.58027,-5.90493 -4.09839,-10.5406 -7.70761,-14.18909 -4.96217,-5.016166 -12.50142,-7.859113 -19.77676,-7.457545 -4.81368,0.265696 -7.21237,1.240208 -13.9723,5.676499 -7.62254,5.002396 -11.98286,6.591016 -19.02739,6.932376 -4.6109,0.22343 -9.01766,-0.40353 -13.23132,-1.88244 -1.50814,-0.52933 -6.2291,-2.73926 -10.49101,-4.910957 -11.62377,-5.922985 -16.88942,-7.413101 -25.051066,-7.089145 -5.063853,0.200998 -7.707687,0.84696 -12,2.931936 -8.365501,4.06351 -15.099562,12.810666 -18.234192,23.685166 -1.291104,4.47904 -1.813293,7.91705 -1.998074,13.155 -0.339139,9.61366 1.286483,17.38621 5.347792,25.5693 4.642301,9.35373 11.400928,15.65087 23.204474,21.62006 10.617216,5.36926 22.236426,8.71485 34.239996,9.85894 4.2105,0.40132 13.84042,0.4107 18.08,0.0176 z M 96.852545,166.67112 c -3.172608,-2.00926 -6.014832,-8.52422 -7.506764,-17.20706 -2.140189,-12.45558 -1.339079,-24.22893 1.982736,-29.13884 2.380864,-3.51912 8.494617,-3.09007 17.057663,1.19705 6.76605,3.38743 15.60593,9.99476 19.53906,14.60436 3.63046,4.25488 4.12903,6.34957 2.3194,9.74478 -2.85392,5.3545 -12.60805,13.77933 -20.92811,18.076 -5.6061,2.89512 -10.503485,3.96533 -12.463985,2.72371 z m 72.656885,-8.44281 c -2.4995,-0.47665 -5.44591,-2.05858 -7.61502,-4.08853 -8.59235,-8.04109 -8.10458,-23.38112 1.009,-31.73206 7.02389,-6.43612 16.60888,-6.29772 22.8494,0.32992 3.70747,3.93745 5.36131,8.30369 5.37447,14.18889 0.009,3.97022 -0.55804,6.6797 -2.0919,9.99785 -3.80847,8.23871 -11.68576,12.79901 -19.52595,11.30393 z"
     style="fill:#15b2b1;stroke-width:0.31999999" /></g></svg>